<?xml version="1.0" standalone="no"?>
<!DOCTYPE svg PUBLIC "-//W3C//DTD SVG 20010904//EN"
 "http://www.w3.org/TR/2001/REC-SVG-20010904/DTD/svg10.dtd">
<svg version="1.0" xmlns="http://www.w3.org/2000/svg"
 width="300.000000pt" height="200.000000pt" viewBox="0 0 300.000000 200.000000"
 preserveAspectRatio="xMidYMid meet">
<metadata>
Created by potrace 1.10, written by Peter Selinger 2001-2011
</metadata>
<g transform="translate(0.000000,200.000000) scale(0.100000,-0.100000)"
fill="#000000" stroke="none">
<path d="M2499 1877 c-41 -26 -75 -91 -89 -169 -13 -71 6 -128 55 -158 102
-63 185 25 185 197 0 136 -62 190 -151 130z m87 -15 c57 -38 39 -257 -25 -291
-31 -17 -57 -13 -90 15 -29 24 -31 31 -31 88 0 118 86 229 146 188z"/>
<path d="M2093 1868 c-51 -56 -57 -193 -13 -283 23 -45 28 -50 63 -53 33 -3
43 2 76 35 61 61 73 171 30 267 -26 56 -118 75 -156 34z m110 -28 c29 -23 40
-63 39 -137 -1 -80 -50 -151 -98 -141 -42 8 -76 133 -60 220 13 71 68 98 119
58z"/>
<path d="M1786 1626 c-15 -14 -29 -46 -36 -82 -21 -98 13 -194 80 -229 43 -22
68 -18 101 14 35 36 39 90 10 173 -29 84 -49 116 -81 133 -39 20 -47 19 -74
-9z m80 -38 c35 -41 64 -120 64 -177 0 -42 -7 -54 -39 -71 -86 -45 -159 167
-88 258 15 19 41 14 63 -10z"/>
<path d="M2789 1556 c-30 -24 -72 -63 -92 -86 -31 -36 -37 -51 -37 -88 0 -37
6 -50 34 -78 48 -48 108 -43 170 14 41 39 56 82 56 164 0 127 -37 148 -131 74z
m99 -73 c4 -105 -31 -159 -115 -178 -27 -5 -37 -2 -58 21 -38 41 -34 84 13
136 51 56 112 99 137 96 18 -3 20 -11 23 -75z"/>
<path d="M2207 1490 c-49 -31 -142 -142 -234 -279 -56 -85 -93 -170 -93 -216
0 -66 57 -135 112 -135 16 0 71 18 123 40 52 22 102 40 112 40 10 0 46 -9 78
-21 51 -18 78 -20 187 -17 109 3 130 6 155 24 99 73 77 199 -69 396 -134 182
-260 239 -371 168z m189 -30 c99 -56 254 -264 276 -371 14 -72 -5 -123 -56
-144 -52 -22 -228 -20 -303 3 -75 24 -115 20 -196 -17 -85 -38 -120 -45 -149
-30 -88 45 -75 139 43 312 115 169 186 250 239 270 39 15 97 6 146 -23z"/>
<path d="M723 1275 c-39 -17 -53 -42 -53 -95 0 -55 55 -194 87 -220 38 -29 85
-35 127 -15 65 31 82 99 51 203 -34 112 -123 166 -212 127z m127 -43 c33 -25
69 -115 70 -173 0 -35 -5 -50 -22 -66 -32 -29 -52 -33 -92 -22 -31 8 -40 19
-67 77 -19 38 -34 89 -37 118 -4 46 -2 53 24 73 34 27 82 24 124 -7z"/>
<path d="M1101 1198 c-51 -27 -66 -63 -65 -151 0 -45 6 -99 13 -119 14 -43 74
-100 137 -131 44 -21 46 -21 59 -4 33 45 30 254 -5 334 -28 63 -91 96 -139 71z
m84 -48 c35 -26 47 -71 51 -180 4 -158 -12 -177 -96 -110 -59 46 -73 81 -74
182 -1 85 0 91 26 113 29 25 55 24 93 -5z"/>
<path d="M369 1071 c-16 -16 -29 -39 -29 -51 0 -87 151 -260 228 -260 88 0
125 131 65 229 -39 63 -119 111 -186 111 -40 0 -53 -5 -78 -29z m142 -16 c89
-39 141 -131 117 -209 -22 -72 -83 -71 -157 4 -27 27 -61 74 -76 104 -23 47
-25 58 -14 78 6 13 17 26 23 30 18 12 71 9 107 -7z"/>
<path d="M847 798 c-49 -13 -103 -67 -116 -115 -6 -21 -13 -81 -17 -133 -4
-52 -18 -131 -30 -174 -26 -86 -30 -149 -13 -193 32 -86 147 -136 236 -102 15
5 63 33 105 60 63 41 89 52 145 61 157 23 227 61 264 143 25 55 23 110 -5 172
-27 58 -68 89 -158 123 -31 12 -100 50 -152 85 -63 42 -112 67 -146 74 -58 13
-61 13 -113 -1z m166 -50 c21 -10 66 -38 100 -61 34 -24 94 -56 132 -72 80
-33 112 -55 137 -93 39 -59 31 -158 -16 -211 -31 -35 -95 -60 -191 -76 -85
-13 -105 -22 -229 -99 -69 -42 -121 -47 -176 -17 -79 41 -98 119 -61 242 25
82 29 106 37 209 9 127 32 167 111 196 45 16 102 10 156 -18z"/>
<path d="M227 683 c-9 -11 -17 -28 -17 -39 0 -37 50 -122 99 -167 44 -41 194
-127 221 -127 6 0 22 11 35 25 28 27 33 81 15 145 -12 45 -80 111 -150 146
-73 37 -176 46 -203 17z m198 -47 c63 -34 104 -72 121 -113 26 -59 13 -133
-23 -133 -36 0 -164 73 -204 117 -54 59 -85 128 -68 150 20 23 112 12 174 -21z"/>
</g>
</svg>
