<?xml version="1.0" standalone="no"?>
<!DOCTYPE svg PUBLIC "-//W3C//DTD SVG 20010904//EN"
 "http://www.w3.org/TR/2001/REC-SVG-20010904/DTD/svg10.dtd">
<svg version="1.0" xmlns="http://www.w3.org/2000/svg"
 width="300.000000pt" height="355.000000pt" viewBox="0 0 300.000000 355.000000"
 preserveAspectRatio="xMidYMid meet">
<metadata>
Created by potrace 1.10, written by Peter Selinger 2001-2011
</metadata>
<g transform="translate(0.000000,355.000000) scale(0.100000,-0.100000)"
fill="#000000" stroke="none">
<path d="M2320 3411 c-17 -33 -12 -79 10 -91 40 -22 82 64 48 98 -18 18 -46
14 -58 -7z"/>
<path d="M2423 3388 c-29 -36 -21 -98 12 -98 28 0 56 39 53 73 -2 26 -8 33
-29 35 -14 2 -30 -3 -36 -10z"/>
<path d="M2230 3335 c-16 -20 -16 -61 0 -80 36 -44 87 22 56 70 -19 28 -38 32
-56 10z"/>
<path d="M2288 3231 c-32 -32 -58 -65 -58 -74 0 -21 45 -51 66 -43 8 3 37 -3
64 -15 38 -16 52 -18 69 -9 25 13 27 53 6 90 -8 14 -14 37 -15 51 0 30 -28 59
-56 59 -10 -1 -45 -27 -76 -59z m96 -8 c3 -10 8 -36 12 -57 6 -36 5 -39 -12
-31 -10 5 -36 10 -56 13 -21 2 -38 9 -38 14 0 13 65 78 78 78 6 0 13 -8 16
-17z"/>
<path d="M2455 3251 c-12 -24 -13 -36 -5 -51 13 -24 28 -25 58 -4 34 24 28 78
-10 82 -21 3 -30 -3 -43 -27z"/>
<path d="M2510 2870 c-24 -24 -26 -63 -4 -84 20 -20 27 -20 47 2 25 28 31 67
12 86 -21 21 -31 20 -55 -4z"/>
<path d="M2600 2823 c-24 -31 -23 -61 3 -77 35 -22 89 44 67 84 -15 28 -45 25
-70 -7z"/>
<path d="M2409 2799 c-38 -38 -5 -110 39 -83 20 13 26 36 18 69 -8 32 -33 38
-57 14z"/>
<path d="M1957 2772 c-32 -36 -11 -103 27 -89 26 10 49 55 42 82 -8 30 -45 34
-69 7z"/>
<path d="M2475 2710 c-25 -22 -51 -40 -56 -40 -5 0 -15 -11 -21 -25 -15 -34
10 -61 63 -68 22 -3 48 -12 57 -20 28 -23 49 -26 72 -10 18 12 21 22 16 47 -4
17 -10 53 -15 80 -7 47 -29 76 -57 76 -7 0 -34 -18 -59 -40z m75 -36 c11 -27
13 -77 5 -86 -3 -3 -22 3 -43 13 -20 11 -42 19 -49 19 -24 0 -13 25 24 53 45
33 51 34 63 1z"/>
<path d="M1846 2718 c-38 -54 4 -117 48 -72 29 29 15 94 -20 94 -7 0 -20 -10
-28 -22z"/>
<path d="M2041 2714 c-25 -32 -26 -47 -5 -68 21 -22 31 -20 59 9 27 26 32 54
13 73 -19 19 -45 14 -67 -14z"/>
<path d="M2634 2705 c-31 -32 -29 -69 4 -73 13 -2 32 4 43 14 23 21 25 69 3
78 -22 9 -22 9 -50 -19z"/>
<path d="M1928 2641 c-14 -11 -43 -27 -66 -36 -69 -28 -65 -85 6 -105 21 -5
49 -21 62 -35 25 -26 45 -31 70 -15 11 7 15 30 16 90 0 75 -1 83 -24 101 -31
24 -33 24 -64 0z m40 -43 c16 -16 16 -98 0 -98 -17 0 -98 43 -98 52 0 7 70 58
80 58 3 0 11 -5 18 -12z"/>
<path d="M2051 2591 c-22 -22 -24 -30 -15 -55 16 -41 99 2 92 47 -4 31 -50 35
-77 8z"/>
<path d="M1399 2179 c-14 -14 -19 -30 -17 -52 2 -26 8 -33 30 -35 44 -5 77 65
46 96 -17 17 -35 15 -59 -9z"/>
<path d="M2005 2176 c-19 -29 -14 -70 9 -79 8 -3 27 3 41 15 20 16 25 28 23
52 -2 25 -8 32 -30 34 -20 2 -31 -4 -43 -22z"/>
<path d="M1895 2136 c-33 -50 3 -109 45 -71 29 27 25 89 -7 93 -14 2 -27 -5
-38 -22z"/>
<path d="M1281 2131 c-15 -28 -14 -66 3 -80 33 -28 83 39 59 78 -15 24 -50 25
-62 2z"/>
<path d="M2113 2138 c-30 -14 -50 -63 -33 -83 18 -22 43 -19 68 8 41 44 16 98
-35 75z"/>
<path d="M1487 2120 c-29 -23 -35 -61 -13 -79 34 -29 104 39 79 77 -15 25 -36
25 -66 2z"/>
<path d="M1960 2050 c-14 -11 -30 -20 -37 -20 -24 0 -63 -24 -68 -41 -9 -27
11 -56 42 -64 15 -3 44 -22 65 -41 42 -38 47 -39 72 -21 24 18 31 164 8 190
-20 22 -51 21 -82 -3z m54 -82 c0 -26 -3 -50 -7 -54 -8 -8 -96 48 -97 62 0 14
60 44 85 41 17 -2 20 -9 19 -49z"/>
<path d="M1350 2045 c-7 -8 -29 -19 -50 -25 -21 -6 -43 -17 -51 -26 -20 -24 0
-65 38 -78 18 -6 44 -23 58 -39 28 -29 66 -35 84 -13 6 7 11 33 10 57 -1 24 1
54 5 67 17 52 -60 99 -94 57z m52 -99 c-4 -50 -18 -58 -47 -26 -10 11 -26 22
-36 25 -32 10 -21 35 24 54 52 23 64 13 59 -53z"/>
<path d="M2095 1995 c-29 -28 -31 -38 -9 -59 20 -21 26 -20 58 5 40 32 31 79
-15 79 -6 0 -21 -11 -34 -25z"/>
<path d="M1480 1990 c-24 -24 -26 -58 -5 -66 45 -18 103 37 75 71 -17 21 -46
19 -70 -5z"/>
<path d="M1434 1616 c-22 -34 -15 -70 14 -74 26 -4 51 13 62 43 19 51 -45 77
-76 31z"/>
<path d="M806 1588 c-28 -40 -17 -88 20 -88 41 0 71 69 42 98 -19 19 -45 14
-62 -10z"/>
<path d="M1329 1589 c-26 -26 -23 -82 4 -87 42 -8 76 65 45 96 -17 17 -25 15
-49 -9z"/>
<path d="M1521 1556 c-31 -33 -25 -70 11 -74 46 -5 86 56 56 86 -19 19 -42 14
-67 -12z"/>
<path d="M907 1548 c-23 -19 -37 -61 -26 -81 14 -24 42 -21 67 6 45 48 10 113
-41 75z"/>
<path d="M696 1528 c-21 -29 -20 -51 2 -71 16 -15 21 -15 39 -2 25 18 33 43
22 73 -11 28 -43 28 -63 0z"/>
<path d="M1385 1497 c-11 -7 -39 -19 -62 -25 -46 -14 -61 -38 -43 -72 6 -11
21 -22 34 -26 14 -3 38 -21 55 -40 33 -35 70 -44 89 -21 5 6 13 49 16 94 7 75
6 82 -13 92 -26 15 -52 14 -76 -2z m50 -86 c-4 -25 -9 -49 -11 -53 -6 -9 -94
52 -94 64 0 13 81 47 97 41 12 -5 13 -16 8 -52z"/>
<path d="M760 1445 c-19 -14 -39 -25 -45 -25 -18 0 -45 -34 -45 -57 0 -24 15
-38 52 -47 14 -3 40 -17 56 -31 35 -29 78 -33 86 -7 2 9 4 49 4 87 0 105 -37
132 -108 80z m68 -84 c2 -29 -1 -51 -5 -50 -65 29 -93 45 -97 55 -6 16 52 53
79 51 17 -2 20 -10 23 -56z"/>
<path d="M1510 1430 c-12 -12 -20 -28 -18 -37 10 -53 93 -33 93 22 0 25 -4 31
-27 33 -17 2 -34 -4 -48 -18z"/>
<path d="M912 1414 c-32 -23 -27 -68 9 -72 31 -4 62 28 57 60 -4 29 -35 35
-66 12z"/>
<path d="M1000 1108 c-33 -36 -24 -88 16 -88 41 0 71 69 42 98 -18 18 -35 15
-58 -10z"/>
<path d="M1090 1058 c-23 -25 -26 -60 -5 -78 21 -17 53 -3 70 31 30 57 -21 94
-65 47z"/>
<path d="M895 1054 c-21 -21 -16 -73 8 -88 15 -9 22 -7 38 13 23 28 24 54 3
75 -20 20 -29 20 -49 0z"/>
<path d="M955 960 c-21 -16 -44 -30 -51 -30 -13 0 -44 -37 -44 -52 0 -17 41
-48 64 -48 14 0 38 -12 55 -26 20 -17 40 -24 58 -22 l28 3 0 85 c0 68 -3 88
-17 102 -26 26 -50 22 -93 -12z m66 -27 c7 -54 7 -103 1 -103 -16 0 -97 46
-97 55 0 5 15 20 34 32 34 23 60 30 62 16z"/>
<path d="M1105 934 c-9 -9 -15 -28 -13 -43 2 -21 8 -26 33 -26 33 0 63 39 52
68 -8 22 -51 22 -72 1z"/>
<path d="M457 792 c-43 -48 7 -134 51 -90 17 17 15 74 -4 92 -20 20 -27 20
-47 -2z"/>
<path d="M560 780 c-23 -23 -26 -72 -5 -90 20 -16 50 -4 64 26 24 53 -21 102
-59 64z"/>
<path d="M372 698 c-18 -18 -14 -63 6 -81 24 -22 39 -21 52 2 15 29 12 56 -8
74 -22 20 -34 21 -50 5z"/>
<path d="M616 664 c-24 -24 -18 -78 10 -82 28 -4 56 30 52 65 -4 34 -37 43
-62 17z"/>
<path d="M473 644 c-10 -14 -33 -43 -50 -64 -18 -20 -33 -44 -33 -53 0 -26 41
-48 77 -41 19 4 47 1 63 -6 16 -7 41 -9 54 -6 37 9 41 39 12 89 -14 24 -26 51
-26 59 0 21 -32 48 -58 48 -12 0 -29 -12 -39 -26z m75 -70 c13 -26 21 -48 19
-50 -8 -8 -117 9 -117 18 0 15 52 78 64 78 7 0 22 -21 34 -46z"/>
<path d="M807 372 c-31 -34 -14 -92 27 -92 18 0 27 8 35 30 21 62 -23 105 -62
62z"/>
<path d="M905 346 c-20 -30 -16 -65 8 -80 22 -14 49 2 62 38 19 55 -39 90 -70
42z"/>
<path d="M710 275 c-21 -55 29 -106 62 -65 22 27 22 39 2 68 -21 30 -52 28
-64 -3z"/>
<path d="M966 239 c-29 -23 -34 -60 -11 -79 19 -16 40 -8 60 24 32 49 -5 90
-49 55z"/>
<path d="M782 191 c-28 -33 -52 -66 -52 -74 0 -27 35 -47 83 -47 25 0 49 -4
52 -10 9 -14 58 -13 73 2 16 16 15 49 -1 73 -8 11 -17 35 -21 54 -16 83 -62
84 -134 2z m102 -31 c9 -22 16 -45 16 -51 0 -11 -99 -2 -113 11 -10 9 50 80
68 80 7 0 20 -18 29 -40z"/>
</g>
</svg>
